<?xml version="1.0" encoding="utf-8" ?><svg width="105" height="67" viewBox="0 0 105 67" fill="none" xmlns="http://www.w3.org/2000/svg"><g clip-path="url(#clip0_31_101)"><path d="M42.418 26.4555V31.8032C42.418 31.9896 42.3541 32.1502 42.2199 32.2852C42.0922 32.4138 41.9324 32.478 41.7408 32.478C41.5363 32.478 41.3702 32.4138 41.2424 32.2852C41.1146 32.1502 41.0507 31.9896 41.0507 31.8032V29.8235H38.5973V31.8032C38.5973 31.9896 38.527 32.1502 38.3928 32.2852C38.2586 32.4138 38.0925 32.478 37.8945 32.478C37.6964 32.478 37.5494 32.4073 37.4217 32.2724C37.2939 32.1374 37.23 31.9767 37.23 31.7967V26.4169C37.23 26.057 37.3003 25.7163 37.4408 25.395C37.5814 25.0736 37.7667 24.7972 37.9967 24.5594C38.2267 24.3216 38.5014 24.1352 38.8145 24.0002C39.1276 23.8652 39.4598 23.7945 39.8112 23.7945C40.1626 23.7945 40.5076 23.8652 40.8207 24.0002C41.1338 24.1352 41.4085 24.3216 41.6449 24.553C41.8813 24.7844 42.0666 25.0607 42.2072 25.3757C42.3477 25.6906 42.418 26.0249 42.418 26.3784V26.4491V26.4555ZM41.0571 26.4298C41.0571 26.2562 41.0252 26.0956 40.9613 25.9477C40.8974 25.7999 40.8079 25.6649 40.6993 25.5557C40.5843 25.44 40.4565 25.3564 40.3032 25.2921C40.1498 25.2279 39.9901 25.1957 39.8176 25.1957C39.4726 25.1957 39.1851 25.3178 38.9551 25.5557C38.7187 25.7935 38.6037 26.0891 38.6037 26.4298V28.4095H41.0571V26.4298Z" fill="#64788D"/><path d="M44.8458 23.8202C45.0247 23.8202 45.178 23.8909 45.3122 24.0259C45.44 24.1609 45.5103 24.3216 45.5103 24.5015V31.8031C45.5103 31.9895 45.4464 32.1502 45.3122 32.2852C45.178 32.4138 45.0247 32.478 44.8458 32.478C44.6477 32.478 44.4816 32.4138 44.3538 32.2852C44.226 32.1502 44.1558 31.9895 44.1558 31.8031V24.5015C44.1558 24.3216 44.2197 24.1609 44.3538 24.0259C44.4816 23.8909 44.6477 23.8202 44.8458 23.8202Z" fill="#64788D"/><path d="M49.9186 23.8074C50.3019 23.8074 50.6789 23.8845 51.0431 24.0388C51.4072 24.193 51.7267 24.4051 52.0014 24.6751C52.2762 24.945 52.4934 25.2664 52.6659 25.6328C52.832 25.9991 52.9151 26.3912 52.9151 26.809V29.4828C52.9151 29.8813 52.832 30.2606 52.6723 30.6141C52.5126 30.974 52.2953 31.289 52.027 31.5718C51.7587 31.8546 51.4392 32.0731 51.075 32.2402C50.7108 32.4009 50.3275 32.4845 49.9186 32.4845H47.9635C47.7846 32.4845 47.6248 32.4202 47.4843 32.2981C47.3437 32.1695 47.2734 32.0024 47.2734 31.7967V24.508C47.2734 24.328 47.3437 24.1673 47.4779 24.0259C47.6121 23.8845 47.7718 23.8138 47.9635 23.8138H49.9186V23.8074ZM48.6343 25.2086V31.1026H49.9186C50.1422 31.1026 50.353 31.0576 50.5511 30.974C50.7492 30.8904 50.9217 30.7748 51.0622 30.6269C51.2092 30.4855 51.3178 30.312 51.4072 30.1192C51.4903 29.9263 51.535 29.7142 51.535 29.4893V26.8154C51.535 26.5905 51.4903 26.3784 51.4072 26.1855C51.3242 25.9927 51.2092 25.8192 51.0622 25.6778C50.9153 25.5299 50.7492 25.4207 50.5511 25.3371C50.353 25.2536 50.1422 25.215 49.9186 25.215H48.6343V25.2086Z" fill="#64788D"/><path d="M59.381 31.3147C59.5152 31.4496 59.5855 31.6103 59.5855 31.7903C59.5855 31.9895 59.5152 32.1567 59.381 32.2852C59.2469 32.4138 59.0871 32.478 58.8955 32.478H55.0747C54.8958 32.478 54.7361 32.4138 54.6019 32.2852C54.4677 32.1502 54.3975 31.9895 54.3975 31.7903V24.5015C54.3975 24.3216 54.4614 24.1609 54.5891 24.0195C54.7169 23.8781 54.8766 23.8074 55.0747 23.8074H58.8955C59.0871 23.8074 59.2469 23.8781 59.381 24.0195C59.5152 24.1609 59.5855 24.3216 59.5855 24.5015C59.5855 24.7008 59.5152 24.8679 59.381 24.9965C59.2469 25.1314 59.0871 25.1957 58.8955 25.1957H55.7392V27.1754H57.9371C58.116 27.1754 58.2757 27.2461 58.4099 27.381C58.544 27.516 58.6143 27.6767 58.6143 27.8695C58.6143 28.0624 58.544 28.223 58.4099 28.3516C58.2757 28.4801 58.116 28.5508 57.9371 28.5508H55.7392V31.1154H58.8955C59.0871 31.1154 59.2469 31.1861 59.381 31.3211V31.3147Z" fill="#64788D"/><path d="M69.8018 26.4619V31.8096C69.8018 32.0024 69.7379 32.1631 69.6037 32.2916C69.4759 32.4266 69.3162 32.4909 69.1245 32.4909C68.9201 32.4909 68.754 32.4266 68.6262 32.2916C68.4984 32.1631 68.4345 32.0024 68.4345 31.8096V29.8299H65.9811V31.8096C65.9811 32.0024 65.9108 32.1631 65.7766 32.2916C65.6424 32.4266 65.4763 32.4909 65.2782 32.4909C65.0802 32.4909 64.9332 32.4202 64.8054 32.2852C64.6777 32.1502 64.6138 31.9895 64.6138 31.8096V26.4362C64.6138 26.0763 64.6841 25.7292 64.8246 25.4078C64.9652 25.0864 65.1505 24.8101 65.3805 24.5722C65.6105 24.3344 65.8852 24.1545 66.1983 24.0131C66.5114 23.8781 66.8436 23.8074 67.195 23.8074C67.5464 23.8074 67.8914 23.8781 68.2045 24.0131C68.5176 24.148 68.7923 24.3344 69.0287 24.5658C69.2651 24.7972 69.4504 25.0736 69.591 25.3885C69.7315 25.7035 69.8018 26.0377 69.8018 26.3912V26.4619ZM68.4409 26.4362C68.4409 26.2627 68.409 26.102 68.3451 25.9541C68.2812 25.8063 68.1917 25.6713 68.0831 25.5621C67.9681 25.4464 67.8403 25.3628 67.687 25.2985C67.5336 25.2343 67.3739 25.2021 67.2014 25.2021C66.8564 25.2021 66.5689 25.3243 66.3389 25.5621C66.1025 25.7999 65.9874 26.0956 65.9874 26.4362V28.4159H68.4409V26.4362Z" fill="#64788D"/><path d="M74.255 32.4909C73.8589 32.4909 73.4883 32.4137 73.1369 32.2531C72.7855 32.0924 72.4788 31.8803 72.2169 31.6039C71.9549 31.3275 71.7441 31.0061 71.5843 30.6398C71.4246 30.2734 71.3288 29.8813 71.3032 29.4635V24.508C71.3032 24.328 71.3671 24.1673 71.5013 24.0259C71.6291 23.8845 71.7952 23.8138 71.9933 23.8138C72.1913 23.8138 72.3383 23.8845 72.4661 24.0259C72.5938 24.1673 72.6577 24.328 72.6577 24.508V29.4764C72.6577 29.7013 72.7025 29.9135 72.7855 30.1127C72.8686 30.312 72.9836 30.4855 73.1305 30.6333C73.2711 30.7812 73.4436 30.9033 73.6417 30.9868C73.8397 31.0704 74.0442 31.1154 74.2614 31.1154C74.4787 31.1154 74.6959 31.0704 74.894 30.9868C75.092 30.9033 75.2645 30.7812 75.4115 30.6333C75.5584 30.4855 75.6734 30.312 75.7629 30.1127C75.8459 29.9135 75.8907 29.7013 75.8907 29.4764V24.508C75.8907 24.328 75.9546 24.1673 76.0887 24.0259C76.2165 23.8845 76.3826 23.8138 76.5807 23.8138C76.7788 23.8138 76.9321 23.8845 77.0599 24.0259C77.1877 24.1673 77.258 24.328 77.258 24.508V29.4764C77.2516 29.8813 77.1685 30.267 77.0152 30.6333C76.8618 30.9933 76.651 31.3146 76.3826 31.591C76.1143 31.8674 75.7948 32.0859 75.437 32.2466C75.0792 32.4073 74.6831 32.4909 74.2614 32.4909H74.255Z" fill="#64788D"/><path d="M84.6376 31.3918C84.727 31.5203 84.7718 31.6553 84.7718 31.7967C84.7718 31.906 84.7462 32.0088 84.6887 32.1052C84.6376 32.2081 84.5673 32.2852 84.4842 32.3495C84.4204 32.3945 84.3501 32.4266 84.2734 32.4523C84.1967 32.478 84.1392 32.4845 84.0881 32.4845C83.8389 32.4845 83.6409 32.3881 83.4939 32.1888L83.5067 32.2017L81.5772 29.38L79.5965 32.2017C79.5262 32.2981 79.4368 32.3752 79.341 32.4202C79.2387 32.4652 79.1365 32.4909 79.0279 32.4909C78.9832 32.4909 78.9193 32.478 78.8426 32.4588C78.7659 32.433 78.702 32.4009 78.6445 32.3559C78.5551 32.2916 78.4848 32.2145 78.4273 32.1117C78.3762 32.0153 78.3442 31.906 78.3442 31.8032C78.3442 31.6875 78.389 31.5525 78.4784 31.3982H78.4656L80.6955 28.1652C80.3441 27.651 79.9735 27.1111 79.5837 26.5455C79.194 25.9799 78.8234 25.44 78.472 24.9258H78.4848C78.3953 24.7908 78.3506 24.6558 78.3506 24.5208C78.3506 24.4116 78.3762 24.3087 78.4337 24.2059C78.4848 24.1095 78.5615 24.0195 78.6637 23.9488L78.6509 23.9616C78.7659 23.8717 78.8937 23.8267 79.0279 23.8267C79.2643 23.8267 79.4496 23.9231 79.5965 24.1223L81.5772 26.944C81.7241 26.7383 81.8775 26.5069 82.0436 26.2627C82.2097 26.0184 82.3758 25.7742 82.5483 25.5235C82.7208 25.2728 82.887 25.0286 83.0531 24.7908C83.2192 24.553 83.3725 24.328 83.5067 24.1223L83.4939 24.1352C83.6473 23.9295 83.8389 23.8267 84.0753 23.8267C84.2223 23.8267 84.3565 23.8717 84.4779 23.9616L84.4523 23.9488C84.5545 24.0195 84.6248 24.1095 84.6823 24.2059C84.7334 24.3087 84.7654 24.4116 84.7654 24.5208C84.7654 24.6751 84.7207 24.8101 84.6312 24.9258H84.644L82.4142 28.1716L84.644 31.4047H84.6312L84.6376 31.3918Z" fill="#64788D"/><path d="M40.1817 37.0222C40.3862 37.0222 40.5587 37.0929 40.6929 37.2279C40.8271 37.3629 40.8973 37.5236 40.8973 37.7036V42.6849C40.8909 43.1091 40.8079 43.5011 40.6482 43.8611C40.4884 44.2146 40.2776 44.5295 40.0092 44.7995C39.7409 45.0694 39.4214 45.2816 39.0572 45.4358C38.6931 45.5965 38.3033 45.6801 37.888 45.6865H37.9008C37.7219 45.6865 37.5622 45.6222 37.4344 45.5001C37.3002 45.3715 37.2363 45.2109 37.2363 45.0116C37.2363 44.8123 37.3002 44.6581 37.4344 44.5231C37.5622 44.3881 37.7219 44.3174 37.9008 44.3174C38.1244 44.3174 38.3353 44.2724 38.5333 44.1889C38.7314 44.1053 38.9039 43.9832 39.0509 43.8354C39.1978 43.6875 39.3128 43.514 39.4023 43.3212C39.4853 43.1284 39.53 42.9162 39.53 42.6913V37.71C39.53 37.53 39.5939 37.3693 39.7217 37.2344C39.8495 37.0994 40.0028 37.0287 40.1817 37.0287V37.0222Z" fill="#64788D"/><path d="M48.0148 44.5167C48.149 44.6517 48.2193 44.8124 48.2193 44.9923C48.2193 45.1916 48.149 45.3587 48.0148 45.4872C47.8807 45.6222 47.7209 45.6865 47.5292 45.6865H43.7085C43.5296 45.6865 43.3699 45.6222 43.2357 45.4872C43.1015 45.3587 43.0312 45.1916 43.0312 44.9923V37.7036C43.0312 37.5236 43.0951 37.3629 43.2229 37.2215C43.3507 37.0801 43.5104 37.0094 43.7085 37.0094H47.5292C47.7209 37.0094 47.8807 37.0801 48.0148 37.2215C48.149 37.3629 48.2193 37.5236 48.2193 37.7036C48.2193 37.9028 48.149 38.0699 48.0148 38.1985C47.8807 38.327 47.7209 38.3977 47.5292 38.3977H44.373V40.3774H46.5709C46.7498 40.3774 46.9095 40.4481 47.0437 40.5831C47.1778 40.7181 47.2481 40.8787 47.2481 41.0716C47.2481 41.2644 47.1778 41.4251 47.0437 41.5536C46.9095 41.6886 46.7498 41.7529 46.5709 41.7529H44.373V44.3174H47.5292C47.7209 44.3174 47.8807 44.3881 48.0148 44.5231V44.5167Z" fill="#64788D"/><path d="M52.3405 45.6865C51.9443 45.6865 51.5738 45.6094 51.2224 45.4487C50.871 45.288 50.5643 45.0759 50.3023 44.7995C50.0404 44.5231 49.8295 44.2017 49.6698 43.8354C49.5101 43.469 49.4142 43.0769 49.3887 42.6592V37.7036C49.3887 37.5236 49.4526 37.3629 49.5867 37.2215C49.7145 37.0801 49.8806 37.0094 50.0787 37.0094C50.2768 37.0094 50.4237 37.0801 50.5515 37.2215C50.6793 37.3629 50.7432 37.5236 50.7432 37.7036V42.672C50.7432 42.897 50.7879 43.1091 50.871 43.3083C50.954 43.5076 51.069 43.6811 51.216 43.829C51.3565 43.9768 51.529 44.0989 51.7271 44.1825C51.9252 44.266 52.1296 44.311 52.3469 44.311C52.5641 44.311 52.7813 44.266 52.9794 44.1825C53.1775 44.0989 53.35 43.9768 53.4969 43.829C53.6439 43.6811 53.7589 43.5076 53.8483 43.3083C53.9314 43.1091 53.9761 42.897 53.9761 42.672V37.7036C53.9761 37.5236 54.04 37.3629 54.1742 37.2215C54.302 37.0801 54.4681 37.0094 54.6661 37.0094C54.8642 37.0094 55.0175 37.0801 55.1453 37.2215C55.2731 37.3629 55.3434 37.5236 55.3434 37.7036V42.672C55.337 43.0769 55.2539 43.4626 55.1006 43.829C54.9473 44.1889 54.7364 44.5103 54.4681 44.7866C54.1997 45.063 53.8803 45.2816 53.5225 45.4422C53.1647 45.6029 52.7686 45.6865 52.3469 45.6865H52.3405Z" fill="#64788D"/><path d="M59.6815 37.0094C60.0776 37.0094 60.4482 37.093 60.7932 37.2536C61.1382 37.4143 61.4449 37.6393 61.7133 37.9157C61.9816 38.1921 62.1925 38.5134 62.3586 38.8734C62.5247 39.2333 62.6205 39.619 62.6525 40.0239V44.9923C62.6525 45.1916 62.5886 45.3587 62.4544 45.4872C62.3266 45.6222 62.1669 45.6865 61.9752 45.6865C61.7836 45.6865 61.611 45.6222 61.4833 45.4872C61.3491 45.3587 61.2852 45.1916 61.2852 44.9923V40.011C61.2852 39.7861 61.2405 39.574 61.1574 39.3811C61.0744 39.1883 60.953 39.0148 60.806 38.8734C60.6591 38.732 60.4865 38.6163 60.2885 38.5263C60.0904 38.4427 59.886 38.3977 59.6687 38.3977C59.4515 38.3977 59.2343 38.4427 59.0426 38.5263C58.8509 38.6098 58.6784 38.7255 58.5315 38.8734C58.3845 39.0212 58.2631 39.1883 58.18 39.3811C58.097 39.574 58.0523 39.7861 58.0523 40.011V44.9923C58.0523 45.1916 57.9884 45.3587 57.8542 45.4872C57.7264 45.6222 57.5667 45.6865 57.3878 45.6865C57.1833 45.6865 57.0172 45.6222 56.8894 45.4872C56.7616 45.3587 56.6978 45.1916 56.6978 44.9923V40.011C56.7041 39.6061 56.7872 39.2204 56.9405 38.8605C57.0939 38.5006 57.3047 38.1921 57.5731 37.9221C57.8414 37.6521 58.1545 37.44 58.5187 37.2794C58.8765 37.1187 59.2662 37.0287 59.6815 37.0094Z" fill="#64788D"/><path d="M69.1437 44.5167C69.2779 44.6517 69.3482 44.8124 69.3482 44.9923C69.3482 45.1916 69.2779 45.3587 69.1437 45.4872C69.0096 45.6222 68.8498 45.6865 68.6581 45.6865H64.8374C64.6585 45.6865 64.4988 45.6222 64.3646 45.4872C64.2304 45.3587 64.1602 45.1916 64.1602 44.9923V37.7036C64.1602 37.5236 64.2241 37.3629 64.3518 37.2215C64.4796 37.0801 64.6393 37.0094 64.8374 37.0094H68.6581C68.8498 37.0094 69.0096 37.0801 69.1437 37.2215C69.2779 37.3629 69.3482 37.5236 69.3482 37.7036C69.3482 37.9028 69.2779 38.0699 69.1437 38.1985C69.0096 38.327 68.8498 38.3977 68.6581 38.3977H65.5019V40.3774H67.6998C67.8787 40.3774 68.0384 40.4481 68.1726 40.5831C68.3067 40.7181 68.377 40.8787 68.377 41.0716C68.377 41.2644 68.3067 41.4251 68.1726 41.5536C68.0384 41.6886 67.8787 41.7529 67.6998 41.7529H65.5019V44.3174H68.6581C68.8498 44.3174 69.0096 44.3881 69.1437 44.5231V44.5167Z" fill="#64788D"/><path d="M72.1404 38.7255C71.9295 38.9441 71.8209 39.2269 71.8081 39.5611C71.8273 39.8568 71.9359 40.1203 72.1468 40.3324C72.3512 40.5509 72.6132 40.6602 72.9326 40.6602H73.9166C74.2296 40.6602 74.5363 40.7245 74.8366 40.8595C75.1305 40.988 75.3989 41.168 75.6289 41.3929C75.8589 41.6179 76.0442 41.8879 76.1847 42.1964C76.3253 42.5049 76.3956 42.8327 76.3956 43.1862C76.3956 43.5397 76.3317 43.8547 76.1975 44.1503C76.0697 44.446 75.8908 44.7095 75.6736 44.9345C75.4564 45.1594 75.1944 45.3394 74.8941 45.468C74.5938 45.6029 74.268 45.6672 73.9293 45.6801H71.3673C71.1628 45.6801 70.9967 45.6158 70.8689 45.4937C70.7411 45.3651 70.6772 45.198 70.6772 44.9923C70.6772 44.8124 70.7411 44.6517 70.8753 44.5167C71.0031 44.3817 71.1692 44.311 71.3673 44.311H73.9293C74.0763 44.311 74.2168 44.2789 74.3574 44.221C74.498 44.1632 74.6194 44.0796 74.7216 43.9768C74.8238 43.8739 74.9069 43.7518 74.9708 43.6168C75.0347 43.4819 75.0666 43.334 75.0666 43.1798C75.0666 43.0191 75.0347 42.8713 74.9708 42.7299C74.9069 42.5949 74.8238 42.4728 74.728 42.3699C74.6258 42.2671 74.5108 42.1835 74.3702 42.1257C74.2296 42.0678 74.0891 42.0357 73.9421 42.0228H72.9454C72.6196 42.0164 72.3065 41.9457 72.0062 41.8172C71.7059 41.6886 71.4375 41.5151 71.2075 41.2965C70.9775 41.078 70.7986 40.8145 70.6581 40.5124C70.5239 40.2103 70.4536 39.8825 70.4536 39.529C70.4536 39.2012 70.5175 38.8862 70.6517 38.5841C70.7795 38.282 70.9584 38.0121 71.182 37.7743C71.4056 37.5365 71.6676 37.3501 71.9742 37.2087C72.2745 37.0673 72.594 36.9966 72.939 36.9966H75.5011C75.68 36.9966 75.8333 37.0673 75.9611 37.2087C76.0889 37.3501 76.1592 37.5172 76.1783 37.7164C76.1719 37.9028 76.1017 38.0635 75.9739 38.1921C75.8461 38.3206 75.6928 38.3849 75.5011 38.3849H72.939C72.6259 38.3849 72.3576 38.4942 72.1468 38.7191L72.1404 38.7255Z" fill="#64788D"/><path d="M100.751 51.9404C100.54 52.159 100.432 52.4418 100.419 52.776C100.438 53.0717 100.553 53.3352 100.758 53.5473C100.962 53.7594 101.224 53.8751 101.537 53.8751H102.521C102.834 53.8751 103.141 53.9394 103.441 54.0744C103.735 54.2029 104.003 54.3829 104.233 54.6078C104.463 54.8328 104.649 55.1028 104.789 55.4113C104.93 55.7198 105 56.0476 105 56.4011C105 56.7546 104.936 57.0696 104.802 57.3652C104.674 57.6609 104.495 57.9244 104.278 58.1494C104.054 58.3743 103.799 58.5543 103.499 58.6829C103.198 58.8178 102.872 58.8821 102.534 58.895H99.9718C99.7673 58.895 99.5948 58.8307 99.4734 58.7021C99.3456 58.5736 99.2817 58.4065 99.2817 58.2008C99.2817 58.0208 99.3456 57.8601 99.4798 57.7252C99.6076 57.5902 99.7737 57.5195 99.9718 57.5195H102.534C102.681 57.5195 102.821 57.4938 102.962 57.4295C103.102 57.3717 103.224 57.2881 103.326 57.1853C103.428 57.0824 103.511 56.9603 103.575 56.8253C103.639 56.6903 103.671 56.5425 103.671 56.3882C103.671 56.2276 103.639 56.0797 103.575 55.9383C103.511 55.8033 103.435 55.6812 103.332 55.5784C103.23 55.4755 103.115 55.392 102.975 55.3341C102.834 55.2763 102.694 55.2442 102.547 55.2313H101.55C101.224 55.2249 100.911 55.1542 100.611 55.0256C100.31 54.8971 100.042 54.7235 99.812 54.505C99.582 54.2865 99.4031 54.0229 99.2626 53.7208C99.1284 53.4188 99.0581 53.091 99.0581 52.7374C99.0581 52.4096 99.122 52.0947 99.2562 51.7926C99.384 51.4905 99.5629 51.2206 99.7865 50.9827C100.01 50.7449 100.272 50.5585 100.579 50.4171C100.879 50.2757 101.198 50.205 101.544 50.205H104.106C104.284 50.205 104.438 50.2757 104.566 50.4171C104.693 50.5585 104.764 50.7256 104.783 50.9249C104.77 51.1113 104.706 51.272 104.578 51.4005C104.451 51.5291 104.297 51.5933 104.106 51.5933H101.544C101.23 51.5933 100.968 51.7026 100.751 51.9276V51.9404Z" fill="#64788D"/><path d="M39.9132 50.2179C40.2965 50.2179 40.6735 50.295 41.0377 50.4493C41.4019 50.6035 41.7213 50.8156 41.9961 51.0856C42.2708 51.3555 42.488 51.6769 42.6605 52.0433C42.8267 52.4096 42.9097 52.8017 42.9097 53.2195V55.8933C42.9097 56.2918 42.8267 56.6711 42.6669 57.0246C42.5072 57.3845 42.29 57.6994 42.0216 57.9823C41.7533 58.2651 41.4338 58.4836 41.0696 58.6507C40.7055 58.8114 40.3221 58.895 39.9132 58.895H37.9581C37.7792 58.895 37.6195 58.8307 37.4789 58.7086C37.3383 58.58 37.2681 58.4129 37.2681 58.2072V50.9185C37.2681 50.7385 37.3383 50.5778 37.4725 50.4364C37.6067 50.295 37.7664 50.2243 37.9581 50.2243H39.9132V50.2179ZM38.629 51.6191V57.5131H39.9132C40.1368 57.5131 40.3477 57.4681 40.5457 57.3845C40.7438 57.3009 40.9163 57.1852 41.0569 57.0374C41.1974 56.8896 41.3124 56.7225 41.4019 56.5296C41.4849 56.3368 41.5297 56.1247 41.5297 55.8998V53.2259C41.5297 53.001 41.4849 52.7889 41.4019 52.596C41.3188 52.4032 41.2038 52.2297 41.0569 52.0883C40.9099 51.9469 40.7438 51.8312 40.5457 51.7476C40.3477 51.6641 40.1368 51.6255 39.9132 51.6255H38.629V51.6191Z" fill="#64788D"/><path d="M45.3121 50.2307C45.491 50.2307 45.6443 50.3014 45.7785 50.4364C45.9063 50.5714 45.9766 50.7321 45.9766 50.912V58.2201C45.9766 58.4065 45.9127 58.5671 45.7785 58.7021C45.6443 58.8307 45.491 58.8949 45.3121 58.8949C45.114 58.8949 44.9479 58.8307 44.8201 58.7021C44.6924 58.5671 44.6221 58.4065 44.6221 58.2201V50.912C44.6221 50.7321 44.686 50.5714 44.8201 50.4364C44.9479 50.3014 45.114 50.2307 45.3121 50.2307Z" fill="#64788D"/><path d="M52.9087 52.866V58.2137C52.9087 58.4 52.8448 58.5607 52.7107 58.6957C52.5829 58.8243 52.4231 58.8885 52.2315 58.8885C52.027 58.8885 51.8609 58.8243 51.7331 58.6957C51.6053 58.5607 51.5414 58.4 51.5414 58.2137V56.234H49.088V58.2137C49.088 58.4 49.0177 58.5607 48.8835 58.6957C48.7494 58.8243 48.5832 58.8885 48.3852 58.8885C48.1871 58.8885 48.0402 58.8178 47.9124 58.6829C47.7846 58.5479 47.7207 58.3872 47.7207 58.2072V52.8274C47.7207 52.4675 47.791 52.1268 47.9315 51.8055C48.0721 51.4841 48.2574 51.2077 48.4874 50.9699C48.7174 50.7321 48.9921 50.5521 49.3052 50.4107C49.6183 50.2757 49.9505 50.205 50.3019 50.205C50.6533 50.205 50.9984 50.2757 51.3114 50.4107C51.6245 50.5457 51.8992 50.7321 52.1356 50.9635C52.372 51.1948 52.5573 51.4712 52.6979 51.7862C52.8384 52.1011 52.9087 52.4353 52.9087 52.7889V52.8596V52.866ZM51.5478 52.8403C51.5478 52.6667 51.5159 52.5061 51.452 52.3582C51.3881 52.2104 51.2987 52.0754 51.19 51.9661C51.075 51.8504 50.9472 51.7669 50.7939 51.7026C50.6406 51.6383 50.4808 51.6062 50.3083 51.6062C49.9633 51.6062 49.6758 51.7283 49.4458 51.9661C49.2094 52.204 49.0944 52.4996 49.0944 52.8403V54.8199H51.5478V52.8403Z" fill="#64788D"/><path d="M59.6749 56.2726C59.6749 56.6325 59.6046 56.9731 59.4705 57.2881C59.3363 57.603 59.151 57.8858 58.9146 58.1237C58.6782 58.3615 58.4035 58.5543 58.0904 58.6893C57.7773 58.8243 57.4387 58.895 57.0809 58.895H55.1897C54.9916 58.895 54.8255 58.8243 54.685 58.6893C54.5444 58.5543 54.4741 58.3872 54.4741 58.1879V52.596C54.4741 52.2682 54.538 51.9661 54.6594 51.6769C54.7872 51.3941 54.9533 51.1434 55.1705 50.9249C55.3878 50.7064 55.637 50.5328 55.9181 50.4107C56.1992 50.2821 56.5059 50.2179 56.8317 50.2179C57.1767 50.2179 57.4898 50.2886 57.7773 50.4235C58.0648 50.5585 58.314 50.7385 58.5249 50.9699C58.7357 51.1948 58.9018 51.4519 59.0232 51.7283C59.1446 52.0111 59.2085 52.3004 59.2085 52.596C59.2085 52.8917 59.1574 53.1938 59.0552 53.4573C58.9529 53.7273 58.8124 53.9651 58.6271 54.1708C58.9402 54.4086 59.1957 54.7042 59.381 55.0706C59.5727 55.437 59.6621 55.8355 59.6621 56.2726H59.6749ZM56.8381 51.6191C56.5762 51.6191 56.3525 51.709 56.1609 51.8954C55.9756 52.0818 55.8797 52.3132 55.8797 52.596V53.573H56.8381C57.1065 53.573 57.3429 53.4766 57.5345 53.2902C57.7262 53.1038 57.8284 52.8724 57.8284 52.596C57.8284 52.3197 57.7326 52.0818 57.5345 51.8954C57.3429 51.709 57.1065 51.6191 56.8381 51.6191ZM57.0809 55.0706H55.8797V57.5002H57.0809C57.4131 57.4938 57.6943 57.3716 57.9307 57.1403C58.1671 56.9089 58.2821 56.6196 58.2821 56.279C58.2821 55.9383 58.1671 55.6619 57.9307 55.4241C57.6943 55.1863 57.4131 55.0706 57.0809 55.0706Z" fill="#64788D"/><path d="M66.1091 57.7251C66.2432 57.8601 66.3135 58.0208 66.3135 58.2008C66.3135 58.4 66.2432 58.5671 66.1091 58.6957C65.9749 58.8242 65.8152 58.8885 65.6235 58.8885H61.8027C61.6238 58.8885 61.4641 58.8242 61.3299 58.6957C61.1958 58.5607 61.1255 58.4 61.1255 58.2008V50.912C61.1255 50.732 61.1894 50.5714 61.3172 50.43C61.4449 50.2886 61.6047 50.2178 61.8027 50.2178H65.6235C65.8088 50.2178 65.9749 50.2886 66.1091 50.43C66.2432 50.5714 66.3135 50.732 66.3135 50.912C66.3135 51.1113 66.2432 51.2784 66.1091 51.4069C65.9749 51.5419 65.8152 51.6062 65.6235 51.6062H62.4672V53.5858H64.6651C64.844 53.5858 65.0037 53.6565 65.1379 53.7915C65.2721 53.9265 65.3424 54.0872 65.3424 54.28C65.3424 54.4728 65.2721 54.6335 65.1379 54.7621C65.0037 54.897 64.844 54.9613 64.6651 54.9613H62.4672V57.5259H65.6235C65.8088 57.5259 65.9749 57.5966 66.1091 57.7316V57.7251ZM64.4223 48.0711C64.5373 47.9811 64.6651 47.9361 64.7993 47.9361C64.9398 47.9361 65.074 47.9747 65.1826 48.0582C65.2976 48.1418 65.3615 48.2575 65.3807 48.4117V48.3989C65.3999 48.5596 65.3615 48.7074 65.2657 48.8488C65.1698 48.9838 65.0485 49.0609 64.8951 49.0802L62.7931 49.3758C62.7931 49.3758 62.7547 49.3694 62.7547 49.2923L62.7803 49.2666L64.4287 48.0711H64.4223Z" fill="#64788D"/><path d="M72.6898 50.4235C72.824 50.5649 72.8943 50.7256 72.8943 50.9056C72.8943 51.1048 72.824 51.272 72.6898 51.4005C72.5556 51.5355 72.3959 51.5998 72.2042 51.5998H70.5878V58.2008C70.5878 58.4 70.5239 58.5671 70.3961 58.6957C70.2683 58.8242 70.1086 58.8885 69.9105 58.8885C69.7124 58.8885 69.5527 58.8242 69.4249 58.6957C69.2972 58.5607 69.2333 58.4 69.2333 58.2008V51.5998H67.604C67.4251 51.5998 67.2654 51.5355 67.1312 51.4005C66.997 51.272 66.9268 51.1048 66.9268 50.9056C66.9268 50.7256 66.997 50.5649 67.1312 50.4235C67.2654 50.2821 67.4251 50.2114 67.604 50.2114H72.2042C72.3959 50.2114 72.5556 50.2821 72.6898 50.4235Z" fill="#64788D"/><path d="M74.9708 50.2307C75.1497 50.2307 75.3094 50.3014 75.4372 50.4364C75.565 50.5714 75.6289 50.7321 75.6289 50.912V58.2201C75.6289 58.4065 75.565 58.5671 75.4372 58.7021C75.303 58.8307 75.1497 58.8949 74.9708 58.8949C74.7727 58.8949 74.6066 58.8307 74.4788 58.7021C74.3447 58.5671 74.2808 58.4065 74.2808 58.2201V50.912C74.2808 50.7321 74.3447 50.5714 74.4788 50.4364C74.6066 50.3014 74.7727 50.2307 74.9708 50.2307Z" fill="#64788D"/><path d="M83.775 55.874C83.7686 56.1633 83.7175 56.4461 83.6345 56.7225C83.5514 56.9988 83.4236 57.2559 83.2639 57.4873L83.5195 57.7573C83.66 57.8858 83.7303 58.0401 83.7303 58.2265C83.7303 58.4129 83.66 58.5671 83.5323 58.6957C83.4045 58.8307 83.2511 58.9014 83.0594 58.9078C82.8742 58.9078 82.708 58.8435 82.5739 58.6957L82.3055 58.4386C81.8838 58.7343 81.3791 58.8885 80.8041 58.8885C80.4079 58.8885 80.0374 58.8114 79.686 58.6507C79.3346 58.49 79.0279 58.2779 78.7595 58.008C78.4912 57.738 78.2803 57.4166 78.1142 57.0503C77.9481 56.6839 77.8523 56.2918 77.8203 55.874V53.2131C77.8267 52.8146 77.9098 52.4353 78.0695 52.069C78.2292 51.709 78.4401 51.3876 78.702 51.1113C78.964 50.8349 79.277 50.6164 79.6412 50.4557C79.999 50.295 80.3888 50.2114 80.8041 50.2114C81.2194 50.2114 81.5708 50.2886 81.9158 50.4492C82.2608 50.6099 82.5675 50.822 82.8358 51.0984C83.0978 51.3748 83.315 51.6962 83.4811 52.0625C83.6473 52.4289 83.7431 52.821 83.7686 53.2388V55.874H83.775ZM82.2927 56.5103C82.3758 56.3175 82.4141 56.1118 82.4141 55.8869V53.2131C82.4141 52.9945 82.3694 52.7888 82.2864 52.5896C82.2033 52.3903 82.0883 52.2168 81.9413 52.0754C81.7944 51.934 81.6283 51.8183 81.4302 51.7283C81.2321 51.6448 81.0277 51.5998 80.8105 51.5998C80.5932 51.5998 80.376 51.6448 80.1779 51.7283C79.9799 51.8119 79.8074 51.9276 79.6668 52.0754C79.5262 52.2232 79.4112 52.3903 79.3218 52.5896C79.2387 52.7888 79.194 52.9945 79.194 53.2131V55.8869C79.194 56.1118 79.2387 56.324 79.3218 56.5168C79.4048 56.7096 79.5198 56.8831 79.6668 57.031C79.8074 57.1788 79.9799 57.3009 80.1779 57.3845C80.376 57.468 80.5868 57.513 80.8105 57.513C80.983 57.513 81.1491 57.4873 81.3088 57.4295L80.7529 56.8703C80.6124 56.7289 80.5357 56.5553 80.5357 56.3689C80.5357 56.1825 80.606 56.0219 80.7529 55.8933C80.868 55.7648 81.0213 55.7005 81.213 55.7005C81.4046 55.7005 81.5644 55.7712 81.7113 55.919L82.2927 56.5039V56.5103Z" fill="#64788D"/><path d="M88.2282 58.8885C87.832 58.8885 87.4615 58.8114 87.1101 58.6507C86.7587 58.49 86.452 58.2779 86.19 58.0015C85.9281 57.7251 85.7172 57.4038 85.5575 57.0374C85.3978 56.671 85.3019 56.279 85.2764 55.8612V50.9056C85.2764 50.7256 85.3403 50.5649 85.4744 50.4235C85.6022 50.2821 85.7683 50.2114 85.9664 50.2114C86.1645 50.2114 86.3114 50.2821 86.4392 50.4235C86.567 50.5649 86.6245 50.7256 86.6245 50.9056V55.874C86.6245 56.099 86.6692 56.3111 86.7523 56.5103C86.8353 56.7096 86.9503 56.8831 87.0973 57.031C87.2379 57.1788 87.4104 57.3009 87.6084 57.3845C87.8065 57.468 88.0109 57.513 88.2282 57.513C88.4454 57.513 88.6626 57.468 88.8607 57.3845C89.0588 57.3009 89.2313 57.1788 89.3782 57.031C89.5252 56.8831 89.6402 56.7096 89.7296 56.5103C89.8127 56.3111 89.8574 56.099 89.8574 55.874V50.9056C89.8574 50.7256 89.9213 50.5649 90.0555 50.4235C90.1833 50.2821 90.3494 50.2114 90.5475 50.2114C90.7455 50.2114 90.8989 50.2821 91.0266 50.4235C91.1544 50.5649 91.2247 50.7256 91.2247 50.9056V55.874C91.2183 56.279 91.1353 56.6646 90.9819 57.031C90.8286 57.3909 90.6177 57.7123 90.3494 57.9887C90.081 58.2651 89.7616 58.4836 89.4038 58.6507C89.046 58.8114 88.6499 58.8949 88.2282 58.8949V58.8885Z" fill="#64788D"/><path d="M97.7165 57.7252C97.8507 57.8601 97.9209 58.0208 97.9209 58.2008C97.9209 58.4 97.8507 58.5672 97.7165 58.6957C97.5823 58.8243 97.4226 58.8885 97.2309 58.8885H93.4102C93.2313 58.8885 93.0715 58.8243 92.9374 58.6957C92.8032 58.5607 92.7329 58.4 92.7329 58.2008V50.912C92.7329 50.7321 92.7968 50.5714 92.9246 50.43C93.0524 50.2886 93.2121 50.2179 93.4102 50.2179H97.2309C97.4162 50.2179 97.5823 50.2886 97.7165 50.43C97.8507 50.5714 97.9209 50.7321 97.9209 50.912C97.9209 51.1113 97.8507 51.2784 97.7165 51.407C97.5823 51.5419 97.4226 51.6062 97.2309 51.6062H94.0746V53.5859H96.2725C96.4514 53.5859 96.6111 53.6566 96.7453 53.7915C96.8795 53.9265 96.9498 54.0872 96.9498 54.28C96.9498 54.4729 96.8795 54.6335 96.7453 54.7621C96.6111 54.8971 96.4514 54.9613 96.2725 54.9613H94.0746V57.5259H97.2309C97.4162 57.5259 97.5823 57.5966 97.7165 57.7316V57.7252Z" fill="#64788D"/><path d="M25.9593 11.0874L29.1539 7.86724C30.0803 6.93526 30.5403 5.84901 30.5403 4.61494C30.5403 3.31659 30.0931 2.21749 29.1922 1.31764C28.3233 0.443507 27.2435 0.00643921 25.9529 0.00643921C24.7198 0.0642865 23.6592 0.53992 22.7583 1.44619C21.8638 2.34604 21.4102 3.41943 21.4102 4.65993C21.4102 5.90043 21.8446 6.96097 22.7136 7.8351L25.9529 11.0938L25.9593 11.0874Z" fill="#97BF0D"/><path d="M22.4197 31.7067H22.4325V20.0601C20.2218 18.7425 17.7747 18.0676 15.0785 18.0676C10.9575 18.0676 7.41147 19.5588 4.45328 22.5347C2.32568 24.6751 0.971167 27.1368 0.39614 29.9199C0.268356 30.9547 0.491978 31.8996 1.07339 32.7416C1.65481 33.5836 2.4918 34.0656 3.58435 34.2006C4.87496 34.3806 6.1528 33.9371 6.81089 33.1143C7.14952 32.6001 7.25813 32.3688 7.64787 31.3468C7.64787 31.3275 7.66065 31.3211 7.66704 31.3018C7.78844 30.8776 7.92261 30.4469 8.07595 30.0227C8.23568 29.5728 8.51042 29.1165 8.90016 28.6601C9.60936 27.7538 10.5294 27.0404 11.6539 26.5198C12.7784 25.9991 13.9221 25.742 15.0849 25.742C17.1422 25.742 18.8865 26.4619 20.3049 27.8824C21.7233 29.3093 22.4261 31.0576 22.4261 33.1336V37.0672V31.7067H22.4197Z" fill="#39A9DC"/><path d="M25.6016 15.5288C24.6112 14.539 23.557 13.7227 22.4453 13.0606V20.0473C22.4964 20.073 22.7648 20.2401 23.1865 20.5229C23.2567 20.5679 23.3206 20.6194 23.3909 20.6643C23.589 20.8057 23.8126 20.9729 24.0554 21.1593C24.0746 21.1721 24.0937 21.185 24.1065 21.1978C24.1448 21.23 24.1896 21.2685 24.2343 21.3007C24.3748 21.4099 24.509 21.5256 24.6496 21.6477C24.6879 21.6799 24.7263 21.712 24.7646 21.7442C24.8221 21.7956 24.8796 21.847 24.9371 21.8984C25.1543 22.0912 25.378 22.3033 25.6016 22.5283C28.5023 25.4464 29.9462 28.9429 29.9462 33.0244V26.0184C29.9462 21.937 28.4959 18.4404 25.6016 15.5224V15.5288Z" fill="#E2007A"/><path d="M15.0721 37.0673C11.015 37.0673 7.46897 38.5199 4.44688 41.4379C1.48229 44.4203 0 47.949 0 52.0369H7.53286C7.53286 51.9276 7.53286 51.8633 7.53286 51.8633C7.57119 49.8644 8.30595 48.1354 9.74991 46.6892C11.1683 45.2623 12.9381 44.5488 15.0657 44.5488H22.4069V37.0673H15.0657H15.0721Z" fill="#E2007A"/><path d="M25.6015 22.5347C25.4162 22.3548 25.2309 22.1812 25.0456 22.0077C25.0073 21.9755 24.969 21.937 24.937 21.9048C24.8795 21.8534 24.822 21.802 24.7645 21.7506C24.7262 21.7184 24.6878 21.6863 24.6495 21.6542C24.5089 21.532 24.3684 21.4164 24.2342 21.3071C24.1959 21.275 24.1511 21.2364 24.1064 21.2042C24.0873 21.1914 24.0681 21.1785 24.0553 21.1657C23.8125 20.9793 23.5889 20.8122 23.3908 20.6708C23.3206 20.6193 23.2503 20.5744 23.1864 20.5294C22.7711 20.2401 22.4963 20.0794 22.4452 20.0537L22.4325 20.0473V30.2991V31.7132V52.0433C22.4325 54.0486 21.7233 55.7648 20.3112 57.1917C18.8928 58.6186 17.1486 59.332 15.0913 59.332H15.0785C13.0212 59.332 11.2514 58.6507 9.77547 57.2881C8.93209 56.4397 8.3379 55.5013 7.97371 54.4857C7.95455 54.4407 7.93538 54.3893 7.9226 54.3379C7.80759 53.9972 7.72453 53.6501 7.66703 53.2966C7.6287 53.0717 7.59675 52.8788 7.57758 52.7053C7.57758 52.686 7.57758 52.6667 7.57119 52.641C7.54564 52.3775 7.53925 52.1718 7.53925 52.0433H0C0 56.1247 1.48229 59.6213 4.44688 62.5393C5.18802 63.2849 5.96112 63.9341 6.77893 64.4933C9.21961 66.1709 11.9861 67.0064 15.0785 67.0064C19.1356 67.0064 22.6433 65.5153 25.6079 62.5393C25.8123 62.3272 25.9976 62.1087 26.1893 61.8966C26.234 61.8452 26.266 61.7938 26.3107 61.7488C26.3107 61.7488 26.3107 61.7488 26.3107 61.7423C26.5152 61.5109 26.7068 61.2796 26.8921 61.0353C26.9943 60.9068 27.0902 60.7782 27.186 60.6497C27.1988 60.6368 27.2052 60.624 27.2116 60.6111C27.3649 60.399 27.5119 60.1869 27.6524 59.9683C27.6588 59.9555 27.6716 59.9426 27.678 59.9362C27.7738 59.7884 27.8633 59.6405 27.9463 59.4927C27.9527 59.4799 27.9591 59.467 27.9719 59.4542C28.0997 59.242 28.2211 59.0235 28.3361 58.805C28.3361 58.805 28.3425 58.7921 28.3488 58.7857C28.4383 58.6122 28.5214 58.4322 28.6044 58.2522C28.6172 58.2201 28.63 58.1944 28.6428 58.1622C28.7258 57.9758 28.8153 57.7959 28.8919 57.6095C28.8919 57.5966 28.9047 57.5838 28.9111 57.5709C29.0005 57.3459 29.0708 57.121 29.1475 56.8896C29.1475 56.8703 29.1603 56.8575 29.1667 56.8382C29.2242 56.6711 29.2881 56.5039 29.3392 56.3304C29.3392 56.324 29.3392 56.3175 29.3456 56.3111C29.467 55.9062 29.5628 55.5013 29.6459 55.0835C29.6459 55.0513 29.6586 55.0256 29.665 54.9999C29.7545 54.5371 29.8184 54.0679 29.8631 53.5859C29.8631 53.573 29.8631 53.5666 29.8631 53.5537C29.8631 53.5537 29.8631 53.5473 29.8631 53.5409C29.8631 53.4766 29.8631 53.4059 29.8759 53.3416C29.9078 52.9174 29.9334 52.4868 29.9334 52.0497V33.0501C29.9334 28.9686 28.4894 25.4657 25.5887 22.554L25.6015 22.5347Z" fill="#F8B334"/></g><defs><clipPath id="clip0_31_101"><rect width="105" height="67" fill="white"/></clipPath></defs></svg>
